<svg width="14" height="14" viewBox="0 0 14 14" fill="none" xmlns="http://www.w3.org/2000/svg">
<path fill-rule="evenodd" clip-rule="evenodd" d="M7.45063 0.891625C7.30067 0.880554 7.15036 0.875009 7 0.875V0C7.17197 8.38491e-05 7.34388 0.00650487 7.51537 0.01925L7.45063 0.891625ZM9.20412 1.28537C8.92364 1.17714 8.63557 1.0897 8.34225 1.02375L8.53388 0.16975C8.869 0.245 9.19887 0.34475 9.51912 0.469L9.20412 1.28537ZM10.4029 1.90662C10.2778 1.82319 10.1496 1.74439 10.0187 1.67037L10.4501 0.909125C10.7493 1.07864 11.0356 1.26991 11.3067 1.48137L10.7686 2.17175C10.65 2.0792 10.528 1.99106 10.4029 1.9075V1.90662ZM12.0076 3.47288C11.8345 3.22698 11.6436 2.99418 11.4362 2.77638L12.0697 2.17263C12.306 2.422 12.5247 2.68887 12.7234 2.96887L12.0076 3.47288ZM12.6586 4.65588C12.6012 4.51715 12.5387 4.38056 12.4714 4.24638L13.2527 3.85262C13.4073 4.15982 13.5389 4.47802 13.6465 4.80463L12.8152 5.0785C12.7682 4.93576 12.716 4.79479 12.6586 4.65588ZM13.1224 6.8495C13.1153 6.5488 13.0861 6.24903 13.0349 5.95262L13.8967 5.80387C13.9554 6.14162 13.9895 6.48462 13.9982 6.82762L13.1232 6.8495H13.1224ZM13.0077 8.19525C13.0366 8.0465 13.0602 7.89862 13.0786 7.749L13.9475 7.85663C13.9055 8.19801 13.8382 8.53581 13.7462 8.86725L12.9028 8.63363C12.943 8.48925 12.978 8.34313 13.0077 8.19525ZM12.1747 10.2769C12.3357 10.0231 12.4775 9.75712 12.6 9.48238L13.3997 9.83675C13.2597 10.1517 13.0979 10.4545 12.9141 10.745L12.1747 10.2769ZM11.3312 11.3313C11.438 11.2245 11.5404 11.1142 11.6375 11.0005L12.3007 11.5719C12.1884 11.7021 12.0714 11.8282 11.9499 11.9499L11.3312 11.3313Z" fill="#CF3031"/>
<path fill-rule="evenodd" clip-rule="evenodd" d="M6.99907 0.875C5.99184 0.875073 5.00017 1.12354 4.1119 1.5984C3.22363 2.07325 2.46617 2.75984 1.90662 3.59734C1.34707 4.43485 1.00269 5.39742 0.903991 6.3998C0.805292 7.40219 0.955316 8.41344 1.34078 9.344C1.72624 10.2746 2.33524 11.0957 3.11383 11.7347C3.89243 12.3737 4.81659 12.8108 5.80446 13.0073C6.79234 13.2038 7.81343 13.1537 8.7773 12.8613C9.74117 12.569 10.6181 12.0434 11.3303 11.3313L11.9489 11.9499C11.135 12.7643 10.1327 13.3654 9.03086 13.6999C7.92905 14.0344 6.76174 14.0919 5.63238 13.8674C4.50301 13.6429 3.44645 13.1434 2.5563 12.4129C1.66616 11.6825 0.969915 10.7438 0.529264 9.68003C0.0886131 8.61622 -0.0828408 7.46014 0.0300935 6.31424C0.143028 5.16833 0.536863 4.06796 1.17671 3.11064C1.81655 2.15332 2.68264 1.3686 3.69825 0.826003C4.71385 0.283408 5.84761 -0.000305141 6.99907 2.46276e-07V0.875Z" fill="#CF3031"/>
<path fill-rule="evenodd" clip-rule="evenodd" d="M6.5625 2.625C6.67853 2.625 6.78981 2.67109 6.87186 2.75314C6.95391 2.83519 7 2.94647 7 3.0625V7.62125L9.842 9.24525C9.93982 9.30426 10.0107 9.39919 10.0394 9.50975C10.0682 9.62031 10.0525 9.73774 9.99587 9.83692C9.93919 9.93611 9.84596 10.0092 9.73611 10.0406C9.62626 10.0719 9.5085 10.0591 9.408 10.0048L6.3455 8.25475C6.27854 8.2165 6.22288 8.16123 6.18415 8.09454C6.14543 8.02785 6.12502 7.95212 6.125 7.875V3.0625C6.125 2.94647 6.17109 2.83519 6.25314 2.75314C6.33519 2.67109 6.44647 2.625 6.5625 2.625Z" fill="#CF3031"/>
</svg>
