<svg width="14" height="18" viewBox="0 0 14 18" fill="none" xmlns="http://www.w3.org/2000/svg">
<path d="M13.0508 18H1.14453V15.4219L6.62891 9.65625C7.98047 8.11719 8.65625 6.89453 8.65625 5.98828C8.65625 5.25391 8.49609 4.69531 8.17578 4.3125C7.85547 3.92969 7.39062 3.73828 6.78125 3.73828C6.17969 3.73828 5.69141 3.99609 5.31641 4.51172C4.94141 5.01953 4.75391 5.65625 4.75391 6.42188H0.792969C0.792969 5.375 1.05469 4.41016 1.57812 3.52734C2.10156 2.63672 2.82812 1.94141 3.75781 1.44141C4.6875 0.941406 5.72656 0.691406 6.875 0.691406C8.71875 0.691406 10.1367 1.11719 11.1289 1.96875C12.1289 2.82031 12.6289 4.04297 12.6289 5.63672C12.6289 6.30859 12.5039 6.96484 12.2539 7.60547C12.0039 8.23828 11.6133 8.90625 11.082 9.60938C10.5586 10.3047 9.71094 11.2383 8.53906 12.4102L6.33594 14.9531H13.0508V18Z" fill="#CF3031"/>
</svg>
